<svg xmlns="http://www.w3.org/2000/svg" xmlns:xlink="http://www.w3.org/1999/xlink" width="262" height="88" viewBox="0 0 262 88"><defs><path id="39ila" d="M99 74a8 8 0 1 1 16 0 8 8 0 0 1-16 0"/><path id="39ilb" d="M98.06 59.12l.1-.12-.16.02zm17.9 29.8l-.06.08h.1zM99.92 86.1l.03-.04h-.06l.03.04zm14-24.17l.22.02a6.88 6.88 0 0 0-.13-.19z"/><path id="39ilc" d="M99.94 62.73l-1.65-2.87-.06-.1c-3.2.43-6.2 1.1-8.9 1.96l-.08-.77c-.5-5.55.67-9.62 3.24-11.2L90.92 47c-4.13 2.49-5.62 8.4-4.62 15.83C79.35 65.69 75 70 75 74.9V75h3.14v-.1c0-3.07 2.93-6.2 8.02-8.56l.71-.32A53.28 53.28 0 0 0 89.72 75h3.34l.04-.1a63.88 63.88 0 0 1 6.9-12.06zm-6.4 4.31a69.08 69.08 0 0 0-2.03 3.82 46.72 46.72 0 0 1-1.66-5.97 45.93 45.93 0 0 1 5.95-1.53 67.13 67.13 0 0 0-2.26 3.68z"/><path id="39ild" d="M125 73.87a4.1 4.1 0 0 1-.05.13l-.06-.13zm-10.4 12.12l-.1.01.06-.08zM90.04 74l.04.1H90l.04-.1zm10.3-11.99l.14-.01-.09.12z"/><path id="39ile" d="M121.43 99.06l-.08.05c-2.64 1.55-6.77.56-11.34-2.72l-.62-.46a52.99 52.99 0 0 0 6.28-7L114 86l-.1.01a62.65 62.65 0 0 1-13.87 0l-.02.05L98.33 89l-.02.04a53.06 53.06 0 0 0 6.17 6.88l-.62.46c-4.54 3.26-8.65 4.26-11.3 2.75L91 101.89a8.55 8.55 0 0 0 4.34 1.11c3.49 0 7.53-1.78 11.6-4.97 4.07 3.2 8.1 4.97 11.6 4.97 1.59 0 3.07-.37 4.38-1.14l.08-.04zm-14.5-5.17a45.99 45.99 0 0 1-4.28-4.46 66.9 66.9 0 0 0 8.57 0 45.99 45.99 0 0 1-4.28 4.46z"/><path id="39ilf" d="M115.54 59l.14.18-.24-.03zM121 73.93l-.07.14-.06-.14zM98.3 88.95l.06.01-.03.04-.03-.05zm-5.27-14.88l.04.09H93l.04-.1z"/><path id="39ilg" d="M127.8 62.03l.18-1.59c.63-7.02-1.1-12.11-4.87-14.34a5.2 5.2 0 0 0-.19-.1l-1.56 2.75.19.1c2.62 1.54 3.84 5.66 3.33 11.3l-.08.78a51.73 51.73 0 0 0-8.98-2l-.22-.02-1.6 2.82.14.2A64.73 64.73 0 0 1 121 74h3.5a54.07 54.07 0 0 0 2.73-8.77l.7.32c4.99 2.33 7.87 5.4 7.96 8.45H139c-.08-4.86-4.37-9.12-11.2-11.97m-5.16 8.05a69.06 69.06 0 0 0-4.27-7.52c2.1.4 4.08.92 5.93 1.54a47.1 47.1 0 0 1-1.66 5.98"/><path id="39ilh" d="M90 84.37c.4-2.06.96-4.2 1.68-6.37A75.23 75.23 0 0 0 96 86a44.21 44.21 0 0 1-6-1.63"/><path id="39ili" d="M78 74h12a53.76 53.76 0 0 0-2.9 9l-.73-.32C81.1 80.28 78.06 77.12 78 74"/><path id="39ilj" d="M78 74h12a53.76 53.76 0 0 0-2.9 9l-.73-.32C81.1 80.28 78.06 77.12 78 74z"/><path id="39ilk" d="M91 101.06L84 113l-.09-.05a45.87 45.87 0 0 1-10.17-7.83l-.07-.07-.28-.29-.18-.18-.3-.32v-.01a50.41 50.41 0 0 1-3.45-4.21l-.32-.45-.3-.45a35.01 35.01 0 0 1-1.55-2.4 28.08 28.08 0 0 1-1.08-1.92l-.27-.52-.52-1.03v-.02a55.62 55.62 0 0 1-.74-1.6c-.7-1.6-1.3-3.25-1.8-4.92l-.17-.57-.1-.37-.04-.13a20.1 20.1 0 0 1-.3-1.16A44.57 44.57 0 0 1 61 74h14.04c.05 4.72 4.36 8.86 11.22 11.62-1.01 7.27.51 13.04 4.7 15.41l.04.03"/><path id="39ill" d="M91 101.06L84 113l-.09-.05a45.87 45.87 0 0 1-10.17-7.83l-.07-.07-.28-.29-.18-.18-.3-.32v-.01a50.41 50.41 0 0 1-3.45-4.21l-.32-.45-.3-.45a35.01 35.01 0 0 1-1.55-2.4 28.08 28.08 0 0 1-1.08-1.92l-.27-.52-.52-1.03v-.02a55.62 55.62 0 0 1-.74-1.6c-.7-1.6-1.3-3.25-1.8-4.92l-.17-.57-.1-.37-.04-.13a20.1 20.1 0 0 1-.3-1.16A44.57 44.57 0 0 1 61 74h14.04c.05 4.72 4.36 8.86 11.22 11.62-1.01 7.27.51 13.04 4.7 15.41l.04.03z"/><path id="39ilm" d="M96 86a44.21 44.21 0 0 1-6-1.63c.4-2.06.96-4.2 1.68-6.37A75.3 75.3 0 0 0 96 86"/><path id="39iln" d="M96 86a44.21 44.21 0 0 1-6-1.63c.4-2.06.96-4.2 1.68-6.37A75.3 75.3 0 0 0 96 86z"/><path id="39ilo" d="M98 88.98l-.02.04L92.4 99c-.02 0-.03-.02-.05-.03-2.56-1.53-3.75-5.61-3.25-11.2l.08-.77a49.6 49.6 0 0 0 8.75 1.97l.06.01"/><path id="39ilp" d="M98 88.98l-.02.04L92.4 99c-.02 0-.03-.02-.05-.03-2.56-1.53-3.75-5.61-3.25-11.2l.08-.77a49.6 49.6 0 0 0 8.75 1.97l.06.01z"/><path id="39ilq" d="M139 74.13V74h-3.14v.13c0 3.08-2.92 6.2-8.01 8.55l-.71.32a53.56 53.56 0 0 0-2.87-9h-3.3l-.05.13a60.81 60.81 0 0 1-1.81 3.8 12.8 12.8 0 0 1-2.71 4.74 61.6 61.6 0 0 1-2.4 3.54l.04.07 1.67 2.91.04.07c3.22-.44 6.23-1.1 8.93-1.97l.08.77c.51 5.56-.68 9.63-3.27 11.2l1.57 2.74c3.75-2.24 5.47-7.29 4.83-14.23a34.7 34.7 0 0 0-.18-1.59c6.94-2.85 11.29-7.15 11.29-12.05m-20.79 11.53a69.32 69.32 0 0 0 4.3-7.49c.7 2.03 1.26 4.03 1.66 5.96a46.06 46.06 0 0 1-5.96 1.53"/><path id="39ilr" d="M122.32 78c.72 2.17 1.28 4.3 1.68 6.37-1.87.66-3.88 1.2-6 1.63a75.07 75.07 0 0 0 4.32-8"/><path id="39ils" d="M122.32 78c.72 2.17 1.28 4.3 1.68 6.37-1.87.66-3.88 1.2-6 1.63a75.07 75.07 0 0 0 4.32-8z"/><path id="39ilt" d="M136 74.13c0 3.08-3.02 6.2-8.3 8.55l-.73.32a52.23 52.23 0 0 0-2.91-8.87L124 74h12v.13"/><path id="39ilu" d="M136 74.13c0 3.08-3.02 6.2-8.3 8.55l-.73.32a52.23 52.23 0 0 0-2.91-8.87L124 74h12v.13z"/><path id="39ilv" d="M121.66 99L116 88.98a51 51 0 0 0 8.8-1.98l.09.77c.5 5.57-.68 9.66-3.23 11.23"/><path id="39ilw" d="M121.66 99L116 88.98a51 51 0 0 0 8.8-1.98l.09.77c.5 5.57-.68 9.66-3.23 11.23z"/><path id="39ilx" d="M153 74v.1a46.2 46.2 0 0 1-7.32 24.97 47.03 47.03 0 0 1-4.21 5.56l-.31.34-1.01 1.1-.18.18a46.1 46.1 0 0 1-9.95 7.75L123 101.84c3.75-2.22 5.47-7.24 4.83-14.15-.05-.52-.1-1.04-.18-1.57 6.94-2.85 11.3-7.12 11.3-11.99l-.01-.13z"/><path id="39ily" d="M108.42 49.03c-.42.3-.85.62-1.27.95-.42-.33-.85-.65-1.27-.95-5.71-4.08-10.95-5.1-14.77-2.88l-.11.07 1.57 2.75.12-.07a5.6 5.6 0 0 1 2.85-.71c2.4 0 5.36 1.17 8.52 3.43l.63.46a53.6 53.6 0 0 0-6.32 7.03l1.65 2.89.14-.01c1.14-.13 2.3-.23 3.47-.3a12.67 12.67 0 0 1 6.69 0c1.21.05 2.41.14 3.58.27l.1-.16 1.62-2.83.08-.16a53.39 53.39 0 0 0-6.09-6.73c.2-.16.42-.31.63-.46 4.47-3.2 8.53-4.22 11.19-2.82l1.57-2.76c-3.8-2.08-8.96-1.03-14.58 2.99m3.03 9.55a67.4 67.4 0 0 0-8.6 0 46.09 46.09 0 0 1 4.3-4.47 46.09 46.09 0 0 1 4.3 4.47"/><path id="39ilz" d="M104 51.92A53.64 53.64 0 0 0 97.74 59l-.06-.1L92 48.79l.11-.07a5.47 5.47 0 0 1 2.83-.72c2.38 0 5.3 1.18 8.44 3.45l.62.47"/><path id="39ilA" d="M104 51.92A53.64 53.64 0 0 0 97.74 59l-.06-.1L92 48.79l.11-.07a5.47 5.47 0 0 1 2.83-.72c2.38 0 5.3 1.18 8.44 3.45l.62.47z"/><path id="39ilB" d="M112 59a65.85 65.85 0 0 0-9 0 50.26 50.26 0 0 1 4.5-5 50.26 50.26 0 0 1 4.5 5"/><path id="39ilC" d="M112 59a65.85 65.85 0 0 0-9 0 50.26 50.26 0 0 1 4.5-5 50.26 50.26 0 0 1 4.5 5z"/><path id="39ilD" d="M122 48.63L116.19 59a54.9 54.9 0 0 0-6.19-6.97l.64-.48c4.54-3.3 8.66-4.36 11.36-2.92"/><path id="39ilE" d="M122 48.63L116.19 59a54.9 54.9 0 0 0-6.19-6.97l.64-.48c4.54-3.3 8.66-4.36 11.36-2.92z"/><path id="39ilF" d="M130 34.08l-7.03 12.07c-3.79-2.04-8.93-1-14.53 2.92-.42.3-.85.6-1.27.93a33.5 33.5 0 0 0-1.27-.93c-5.68-4-10.9-4.99-14.7-2.82l-.12.07L84 34.17l.08-.05a46.29 46.29 0 0 1 32.12-5.21l.45.09a48.39 48.39 0 0 1 1.7.4c3.99 1 7.9 2.54 11.65 4.68"/><path id="39ilG" d="M130 34.08l-7.03 12.07c-3.79-2.04-8.93-1-14.53 2.92-.42.3-.85.6-1.27.93a33.5 33.5 0 0 0-1.27-.93c-5.68-4-10.9-4.99-14.7-2.82l-.12.07L84 34.17l.08-.05a46.29 46.29 0 0 1 32.12-5.21l.45.09a48.39 48.39 0 0 1 1.7.4c3.99 1 7.9 2.54 11.65 4.68z"/></defs><g><g opacity=".2" transform="translate(-60 -27)"><g opacity=".2"><use xlink:href="#39ila"/></g><g opacity=".2"><use xlink:href="#39ilb"/></g><g opacity=".2"><use xlink:href="#39ilc"/></g><g opacity=".2"><use xlink:href="#39ild"/></g><g opacity=".2"><use xlink:href="#39ile"/></g><g opacity=".2"><use xlink:href="#39ilf"/></g><g opacity=".2"><use xlink:href="#39ilg"/></g><g opacity=".2"><use fill="#fff" xlink:href="#39ilh"/></g><g opacity=".2"><use xlink:href="#39ili"/></g><g opacity=".2"><use fill="#fff" fill-opacity="0" stroke="#000" stroke-miterlimit="50" xlink:href="#39ilj"/></g><g opacity=".2"><use xlink:href="#39ilk"/></g><g opacity=".2"><use fill="#fff" fill-opacity="0" stroke="#000" stroke-miterlimit="50" xlink:href="#39ill"/></g><g opacity=".2"><use xlink:href="#39ilm"/></g><g opacity=".2"><use fill="#fff" fill-opacity="0" stroke="#000" stroke-miterlimit="50" xlink:href="#39iln"/></g><g opacity=".2"><use xlink:href="#39ilo"/></g><g opacity=".2"><use fill="#fff" fill-opacity="0" stroke="#000" stroke-miterlimit="50" xlink:href="#39ilp"/></g><g opacity=".2"><use fill="#fff" xlink:href="#39ilq"/></g><g opacity=".2"><use xlink:href="#39ilr"/></g><g opacity=".2"><use fill="#fff" fill-opacity="0" stroke="#000" stroke-miterlimit="50" xlink:href="#39ils"/></g><g opacity=".2"><use xlink:href="#39ilt"/></g><g opacity=".2"><use fill="#fff" fill-opacity="0" stroke="#000" stroke-miterlimit="50" xlink:href="#39ilu"/></g><g opacity=".2"><use xlink:href="#39ilv"/></g><g opacity=".2"><use fill="#fff" fill-opacity="0" stroke="#000" stroke-miterlimit="50" xlink:href="#39ilw"/></g><g opacity=".2"><use xlink:href="#39ilx"/></g><g opacity=".2"><use fill="#fff" fill-opacity="0" stroke="#000" stroke-miterlimit="50" xlink:href="#39ilx"/></g><g opacity=".2"><use fill="#fff" xlink:href="#39ily"/></g><g opacity=".2"><use xlink:href="#39ilz"/></g><g opacity=".2"><use fill="#fff" fill-opacity="0" stroke="#000" stroke-miterlimit="50" xlink:href="#39ilA"/></g><g opacity=".2"><use xlink:href="#39ilB"/></g><g opacity=".2"><use fill="#fff" fill-opacity="0" stroke="#000" stroke-miterlimit="50" xlink:href="#39ilC"/></g><g opacity=".2"><use xlink:href="#39ilD"/></g><g opacity=".2"><use fill="#fff" fill-opacity="0" stroke="#000" stroke-miterlimit="50" xlink:href="#39ilE"/></g><g opacity=".2"><use xlink:href="#39ilF"/></g><g opacity=".2"><use fill="#fff" fill-opacity="0" stroke="#000" stroke-miterlimit="50" xlink:href="#39ilG"/></g></g><g transform="translate(-60 -27)"><g fill="#bbb" font-family="'Roboto Bk','Roboto-Black'" font-size="36"><text dominant-baseline="text-before-edge" font-family="Helvetica, Arial, sans-serif" transform="translate(180 51)"><tspan>REACT’R</tspan></text></g></g></g></svg>